0
SECTION
2
HEADER
9
$INSUNITS
70
4
9
$ACADVER
1
AC1014
9
$HANDSEED
5
FFFF
0
ENDSEC
0
SECTION
2
TABLES
0
TABLE
2
VPORT
5
8
100
AcDbSymbolTable
0
ENDTAB
0
TABLE
2
LTYPE
5
5
100
AcDbSymbolTable
0
LTYPE
5
14
100
AcDbSymbolTableRecord
100
AcDbLinetypeTableRecord
2
BYBLOCK
70
0
0
LTYPE
5
15
100
AcDbSymbolTableRecord
100
AcDbLinetypeTableRecord
2
BYLAYER
70
0
0
ENDTAB
0
TABLE
2
LAYER
5
2
100
AcDbSymbolTable
70
2
0
LAYER
5
50
100
AcDbSymbolTableRecord
100
AcDbLayerTableRecord
2
0
70
0
6
CONTINUOUS
0
ENDTAB
0
TABLE
2
STYLE
5
3
100
AcDbSymbolTable
70
1
0
STYLE
5
11
100
AcDbSymbolTableRecord
100
AcDbTextStyleTableRecord
2
STANDARD
70
0
0
ENDTAB
0
TABLE
2
VIEW
5
6
100
AcDbSymbolTable
70
0
0
ENDTAB
0
TABLE
2
UCS
5
7
100
AcDbSymbolTable
70
0
0
ENDTAB
0
TABLE
2
APPID
5
9
100
AcDbSymbolTable
70
2
0
APPID
5
12
100
AcDbSymbolTableRecord
100
AcDbRegAppTableRecord
2
ACAD
70
0
0
ENDTAB
0
TABLE
2
DIMSTYLE
5
A
100
AcDbSymbolTable
70
1
0
ENDTAB
0
TABLE
2
BLOCK_RECORD
5
1
100
AcDbSymbolTable
70
1
0
BLOCK_RECORD
5
1F
100
AcDbSymbolTableRecord
100
AcDbBlockTableRecord
2
*MODEL_SPACE
0
BLOCK_RECORD
5
1B
100
AcDbSymbolTableRecord
100
AcDbBlockTableRecord
2
*PAPER_SPACE
0
ENDTAB
0
ENDSEC
0
SECTION
2
BLOCKS
0
BLOCK
5
20
100
AcDbEntity
100
AcDbBlockBegin
2
*MODEL_SPACE
0
ENDBLK
5
21
100
AcDbEntity
100
AcDbBlockEnd
0
BLOCK
5
1C
100
AcDbEntity
100
AcDbBlockBegin
2
*PAPER_SPACE
0
ENDBLK
5
1D
100
AcDbEntity
100
AcDbBlockEnd
0
ENDSEC
0
SECTION
2
ENTITIES
0
LWPOLYLINE
5
100
100
AcDbEntity
8
0
100
AcDbPolyline
90
4
70
1
43
0.0
10
-15.499999999999998
20
231.02999999999997
10
-15.499999999999998
20
200.70999999999998
42
0.99999999999999989
10
-12.5
20
200.70999999999998
10
-12.5
20
231.02999999999997
42
0.99999999999999989
0
LWPOLYLINE
5
101
100
AcDbEntity
8
0
100
AcDbPolyline
90
56
70
1
43
0.0
10
-345.39725628345025
20
283.45015183215776
42
-0.22169466264285495
10
-345.97543211726071
20
285.03867688002606
10
-345.18515747037577
20
294.07155742747659
42
-0.38887873185298977
10
-335.22321048945827
20
303.19999999999999
10
-316.05163761420442
20
303.19999999999999
42
-0.19891236737963572
10
-314.63742405183132
20
302.61421356237304
10
-303.30899692708522
20
291.28578643762688
42
0.19891236737965801
10
-301.89478336471211
20
290.69999999999999
10
-213.32842712474613
20
290.69999999999999
42
0.19891236737966128
10
-211.91421356237302
20
291.28578643762694
10
-200.58578643762675
20
302.61421356237304
42
-0.19891236737967105
10
-199.17157287525373
20
303.19999999999999
10
-170.82842712474613
20
303.19999999999999
42
-0.19891236737962464
10
-169.41421356237302
20
302.61421356237304
10
-158.08578643762687
20
291.28578643762688
42
0.19891236737965801
10
-156.67157287525379
20
290.69999999999999
10
-43.328427124746121
20
290.69999999999999
42
0.1989123673796564
10
-41.91421356237305
20
291.28578643762688
10
-30.585786437626801
20
302.6142135623731
42
-0.19891236737965212
10
-29.171572875253766
20
303.19999999999999
10
-10.000000000000002
20
303.19999999999999
42
-0.41421356237309503
10
0
20
293.19999999999999
10
3.4694469519536142e-15
20
284.0284271247462
42
-0.19891236737964138
10
-0.58578643762690619
20
282.6142135623731
10
-9.4142135623730976
20
273.78578643762694
42
0.19891236737965762
10
-10
20
272.37157287525383
10
-10
20
30.828427124746192
42
0.1989123673796582
10
-9.4142135623730958
20
29.414213562373096
10
-0.58578643762690397
20
20.585786437626904
42
-0.19891236737965776
10
0
20
19.171572875253812
10
0
20
10
42
-0.41421356237309503
10
-10
20
0
10
-29.171572875253812
20
1.9428902930940239e-15
42
-0.19891236737965845
10
-30.585786437626904
20
0.5857864376269073
10
-41.914213562373099
20
11.914213562373098
42
0.19891236737965762
10
-43.328427124746192
20
12.5
10
-156.67157287525382
20
12.5
42
0.19891236737965903
10
-158.08578643762692
20
11.914213562373082
10
-169.41421356237313
20
0.58578643762689042
42
-0.1989123673796378
10
-170.82842712474618
20
0
10
-199.17157287525382
20
-5.2735593669694936e-15
42
-0.19891236737964091
10
-200.58578643762689
20
0.58578643762690286
10
-211.91421356237311
20
11.914213562373098
42
0.19891236737965762
10
-213.32842712474618
20
12.5
10
-326.67157287525379
20
12.5
42
0.19891236737965518
10
-328.08578643762689
20
11.914213562373124
10
-339.41421356237305
20
0.58578643762690596
42
-0.19891236737965892
10
-340.82842712474616
20
-1.3192504389556067e-15
10
-360
20
-3.3306690738754696e-14
42
-0.44001053089183328
10
-369.9619469809175
20
10.871557427476581
10
-369.15383374565187
20
20.108333973115563
42
-0.17632698070847805
10
-368.57565791184152
20
21.348236049993385
10
-358.60449251877532
20
31.319401443059466
42
0.1763269807084655
10
-358.02631668496502
20
32.559303519937259
10
-336.90737421347029
20
273.94992054811974
42
0.2216946626429416
10
-337.4855500472807
20
275.53844559598821
0
CIRCLE
5
102
100
AcDbEntity
8
0
100
AcDbCircle
10
-179.80000000000001
20
200.64999999999998
30
0
40
1.6000000000000003
210
0
220
-0
230
1
0
CIRCLE
5
103
100
AcDbEntity
8
0
100
AcDbCircle
10
-47.719999999999999
20
43.169999999999987
30
0
40
1.6000000000000003
210
0
220
-0
230
1
0
CIRCLE
5
104
100
AcDbEntity
8
0
100
AcDbCircle
10
-20
20
5.0000000000000107
30
0
40
1.6000000000000003
210
0
220
-0
230
1
0
CIRCLE
5
105
100
AcDbEntity
8
0
100
AcDbCircle
10
-350
20
4.9999999999999813
30
0
40
1.6000000000000003
210
0
220
-0
230
1
0
CIRCLE
5
106
100
AcDbEntity
8
0
100
AcDbCircle
10
-228.69999999999999
20
183
30
0
40
1.6000000000000003
210
0
220
-0
230
1
0
CIRCLE
5
107
100
AcDbEntity
8
0
100
AcDbCircle
10
-338.60116152753665
20
296.88638668405059
30
0
40
1.6000000000000003
210
0
220
-0
230
1
0
CIRCLE
5
108
100
AcDbEntity
8
0
100
AcDbCircle
10
-20
20
298.19999999999999
30
0
40
1.6000000000000003
210
0
220
-0
230
1
0
CIRCLE
5
109
100
AcDbEntity
8
0
100
AcDbCircle
10
-6.4644660940672649
20
296.73553390593275
30
0
40
1.6000000000000003
210
0
220
-0
230
1
0
CIRCLE
5
110
100
AcDbEntity
8
0
100
AcDbCircle
10
-325.22321048945827
20
298.19999999999999
30
0
40
1.6000000000000003
210
0
220
-0
230
1
0
CIRCLE
5
111
100
AcDbEntity
8
0
100
AcDbCircle
10
-264.69999999999999
20
175
30
0
40
1.6000000000000003
210
0
220
-0
230
1
0
CIRCLE
5
112
100
AcDbEntity
8
0
100
AcDbCircle
10
-305.30000000000001
20
183
30
0
40
1.6000000000000003
210
0
220
-0
230
1
0
CIRCLE
5
113
100
AcDbEntity
8
0
100
AcDbCircle
10
-363.6863866840506
20
6.6220489619216902
30
0
40
1.6000000000000003
210
0
220
-0
230
1
0
CIRCLE
5
114
100
AcDbEntity
8
0
100
AcDbCircle
10
-185
20
4.9999999999999911
30
0
40
1.6000000000000003
210
0
220
-0
230
1
0
CIRCLE
5
115
100
AcDbEntity
8
0
100
AcDbCircle
10
-6.4644660940672622
20
6.4644660940672622
30
0
40
1.6000000000000003
210
0
220
-0
230
1
0
CIRCLE
5
116
100
AcDbEntity
8
0
100
AcDbCircle
10
-179.80000000000001
20
43.169999999999966
30
0
40
1.6000000000000003
210
0
220
-0
230
1
0
CIRCLE
5
117
100
AcDbEntity
8
0
100
AcDbCircle
10
-24.860000000000007
20
200.64999999999998
30
0
40
1.6000000000000003
210
0
220
-0
230
1
0
LWPOLYLINE
5
118
100
AcDbEntity
8
0
100
AcDbPolyline
90
12
70
1
43
0.0
10
-321.79270349755132
20
102.41267811418274
10
-321.79270349755132
20
41.999999999999993
42
0.41421356237309503
10
-319.79270349755132
20
40
10
-217.00070381840536
20
40
42
0.38887873185298683
10
-215.00831442222187
20
41.825688514504662
10
-209.70761060381648
20
102.41301040032197
42
0.021820077622149756
10
-209.69999999999999
20
102.58732188581729
10
-209.69999999999999
20
162.99999999999997
42
0.41421356237309503
10
-211.69999999999999
20
165
10
-314.49199967914592
20
165
42
0.38887873185298683
10
-316.48438907532943
20
163.17431148549534
10
-321.78509289373483
20
102.58698959967805
42
0.021820077622149756
0
LWPOLYLINE
5
119
100
AcDbEntity
8
0
100
AcDbPolyline
90
8
70
1
43
0.0
10
-239.86000000000004
20
228.10838099546285
10
-239.86000000000004
20
222.65000000000001
42
0.41421356237309503
10
-237.86000000000004
20
220.64999999999998
10
-206.86000000000007
20
220.64999999999998
42
0.41421356237309503
10
-204.86000000000004
20
222.64999999999998
10
-204.86000000000004
20
254.12046956195854
42
0.63707026080749285
10
-208.14557521937309
20
255.65255844819649
10
-239.14557521937311
20
229.6404698817008
42
0.22169466264294016
0
LWPOLYLINE
5
120
100
AcDbEntity
8
0
100
AcDbPolyline
90
8
70
1
43
0.0
10
-119.86000000000001
20
228.10838099546282
10
-119.86000000000001
20
222.65000000000001
42
0.41421356237309503
10
-117.86000000000001
20
220.64999999999998
10
-86.859999999999999
20
220.64999999999998
42
0.41421356237309503
10
-84.860000000000014
20
222.64999999999998
10
-84.860000000000014
20
254.12046956195854
42
0.63707026080748796
10
-88.145575219373029
20
255.65255844819649
10
-119.1455752193731
20
229.64046988170077
42
0.22169466264293844
0
LWPOLYLINE
5
121
100
AcDbEntity
8
0
100
AcDbPolyline
90
8
70
1
43
0.0
10
-26.859999999999971
20
270.69999999999999
10
-57.859999999999971
20
270.69999999999999
42
0.41421356237309503
10
-59.859999999999971
20
268.69999999999999
10
-59.859999999999985
20
263.24161900453731
42
0.22169466264293747
10
-59.145575219373079
20
261.70953011829937
10
-28.145575219373072
20
235.69744155180362
42
0.63707026080749518
10
-24.859999999999989
20
237.22953043804156
10
-24.859999999999971
20
268.69999999999999
42
0.41421356237309503
0
LWPOLYLINE
5
122
100
AcDbEntity
8
0
100
AcDbPolyline
90
8
70
1
43
0.0
10
-179.14557521937309
20
261.70953011829931
10
-148.14557521937306
20
235.69744155180362
42
0.63707026080749518
10
-144.86000000000001
20
237.22953043804156
10
-144.85999999999999
20
268.69999999999999
42
0.41421356237309503
10
-146.85999999999999
20
270.69999999999999
10
-177.86000000000001
20
270.69999999999999
42
0.41421356237309503
10
-179.86000000000001
20
268.69999999999999
10
-179.86000000000001
20
263.24161900453726
42
0.22169466264294016
0
LWPOLYLINE
5
123
100
AcDbEntity
8
0
100
AcDbPolyline
90
8
70
1
43
0.0
10
-216.86000000000001
20
270.69999999999999
10
-247.86000000000004
20
270.69999999999999
42
0.41421356237309503
10
-249.86000000000001
20
268.69999999999999
10
-249.86000000000004
20
237.22953043804168
42
0.63707026080749285
10
-246.574424780627
20
235.69744155180373
10
-215.57442478062694
20
261.70953011829943
42
0.22169466264294019
10
-214.86000000000004
20
263.24161900453737
10
-214.86000000000001
20
268.69999999999999
42
0.41421356237309503
0
LWPOLYLINE
5
124
100
AcDbEntity
8
0
100
AcDbPolyline
90
8
70
1
43
0.0
10
-154.86000000000001
20
222.64999999999998
10
-154.86000000000001
20
228.10838099546285
42
0.22169466264294016
10
-155.57442478062694
20
229.6404698817008
10
-186.574424780627
20
255.65255844819646
42
0.63707026080749285
10
-189.86000000000004
20
254.12046956195852
10
-189.86000000000004
20
222.65000000000001
42
0.41421356237309503
10
-187.86000000000004
20
220.64999999999998
10
-156.86000000000001
20
220.64999999999998
42
0.41421356237309503
0
LWPOLYLINE
5
125
100
AcDbEntity
8
0
100
AcDbPolyline
90
8
70
1
43
0.0
10
-274.86000000000001
20
222.64999999999998
10
-274.86000000000001
20
228.10838099546285
42
0.22169466264294016
10
-275.57442478062694
20
229.6404698817008
10
-306.574424780627
20
255.65255844819646
42
0.63707026080749285
10
-309.86000000000001
20
254.12046956195852
10
-309.86000000000001
20
222.65000000000001
42
0.41421356237309503
10
-307.86000000000007
20
220.64999999999998
10
-276.86000000000007
20
220.64999999999998
42
0.41421356237309503
0
LWPOLYLINE
5
126
100
AcDbEntity
8
0
100
AcDbPolyline
90
8
70
1
43
0.0
10
-94.859999999999985
20
263.24161900453737
10
-94.859999999999971
20
268.69999999999999
42
0.41421356237309503
10
-96.859999999999957
20
270.69999999999999
10
-127.85999999999999
20
270.69999999999999
42
0.41421356237309503
10
-129.85999999999996
20
268.69999999999999
10
-129.86000000000001
20
237.22953043804168
42
0.63707026080749285
10
-126.57442478062694
20
235.69744155180373
10
-95.574424780626856
20
261.70953011829943
42
0.22169466264293664
0
LWPOLYLINE
5
127
100
AcDbEntity
8
0
100
AcDbPolyline
90
8
70
1
43
0.0
10
-299.14557521937314
20
256.7095301182992
10
-268.14557521937309
20
230.69744155180345
42
0.63707026080749285
10
-264.86000000000001
20
232.22953043804139
10
-264.86000000000001
20
263.69999999999999
42
0.41421356237309503
10
-266.86000000000001
20
265.69999999999999
10
-297.86000000000001
20
265.69999999999999
42
0.41421356237309503
10
-299.86000000000001
20
263.69999999999999
10
-299.86000000000001
20
258.24161900453714
42
0.22169466264293664
0
LWPOLYLINE
5
128
100
AcDbEntity
8
0
100
AcDbPolyline
90
8
70
1
43
0.0
10
-34.860000000000007
20
222.64999999999998
10
-34.860000000000007
20
228.10838099546285
42
0.22169466264294019
10
-35.574424780626941
20
229.6404698817008
10
-66.574424780626899
20
255.65255844819643
42
0.63707026080749629
10
-69.860000000000014
20
254.12046956195849
10
-69.860000000000014
20
222.65000000000001
42
0.41421356237309503
10
-67.859999999999999
20
220.64999999999998
10
-36.860000000000007
20
220.64999999999998
42
0.41421356237309503
0
LWPOLYLINE
5
129
100
AcDbEntity
8
0
100
AcDbPolyline
90
19
70
1
43
0.0
10
-41.134213562373098
20
49.755786437626888
10
-25.445786437626914
20
65.444213562373065
42
0.19891236737965912
10
-24.860000000000007
20
66.858427124746171
10
-24.859999999999989
20
192.90403330758517
42
0.34199871311964725
10
-26.359999999999996
20
194.84052498068888
42
-0.2728421326631576
10
-30.66947501931114
20
199.14999999999998
42
0.34199871311964603
10
-32.605966692414853
20
200.64999999999998
10
-172.05403330758514
20
200.64999999999998
42
0.34199871311965085
10
-173.99052498068886
20
199.14999999999995
42
-0.27284213266315638
10
-178.30000000000001
20
194.84052498068883
42
0.34199871311964603
10
-179.80000000000001
20
192.90403330758511
10
-179.80000000000001
20
50.91596669241482
42
0.34199871311964536
10
-178.30000000000001
20
48.97947501931111
42
-0.27284213266315738
10
-173.99052498068886
20
44.669999999999973
42
0.34199871311964725
10
-172.05403330758514
20
43.169999999999966
10
-55.465966692414838
20
43.169999999999987
42
0.34199871311964664
10
-53.529475019311135
20
44.669999999999987
42
-0.34199871311964714
10
-47.719999999999985
20
49.169999999999987
10
-42.54842712474619
20
49.169999999999987
42
0.19891236737965723
0
LWPOLYLINE
5
130
100
AcDbEntity
8
0
100
AcDbPolyline
90
4
70
1
43
0.0
10
-271.30000000000001
20
35
42
-0.99999999999999989
10
-268.09999999999997
20
35
10
-268.09999999999997
20
30
42
-0.99999999999999989
10
-271.30000000000001
20
30
0
LWPOLYLINE
5
131
100
AcDbEntity
8
0
100
AcDbPolyline
90
4
70
1
43
0.0
10
-327.69999999999993
20
171.59999999999999
42
-0.99999999999999989
10
-327.69999999999993
20
168.40000000000001
10
-337.69999999999993
20
168.40000000000001
42
-0.99999999999999989
10
-337.69999999999993
20
171.59999999999999
0
LWPOLYLINE
5
132
100
AcDbEntity
8
0
100
AcDbPolyline
90
4
70
1
43
0.0
10
-196.29999999999998
20
194.07999999999998
42
-0.99999999999999989
10
-193.09999999999999
20
194.07999999999998
10
-193.09999999999999
20
184.07999999999998
42
-0.99999999999999989
10
-196.29999999999998
20
184.07999999999998
0
LWPOLYLINE
5
133
100
AcDbEntity
8
0
100
AcDbPolyline
90
4
70
1
43
0.0
10
-337.69999999999993
20
33.399999999999999
42
-0.99999999999999989
10
-337.69999999999993
20
36.600000000000001
10
-327.69999999999993
20
36.600000000000001
42
-0.99999999999999989
10
-327.69999999999993
20
33.399999999999999
0
CIRCLE
5
134
100
AcDbEntity
8
0
100
AcDbCircle
10
-185
20
25
30
0
40
6.4999999999999858
210
0
220
0
230
1
0
CIRCLE
5
135
100
AcDbEntity
8
0
100
AcDbCircle
10
-175.15000000000001
20
25
30
0
40
1.6000000000000003
210
0
220
-0
230
1
0
CIRCLE
5
136
100
AcDbEntity
8
0
100
AcDbCircle
10
-194.84999999999999
20
25
30
0
40
1.6000000000000003
210
0
220
-0
230
1
0
ENDSEC
0
SECTION
2
OBJECTS
0
DICTIONARY
5
C
100
AcDbDictionary
3
ACAD_GROUP
350
D
3
ACAD_MLINESTYLE
350
17
0
DICTIONARY
5
D
100
AcDbDictionary
0
DICTIONARY
5
1A
330
C
100
AcDbDictionary
0
DICTIONARY
5
17
100
AcDbDictionary
0
ENDSEC
0
EOF
