0
SECTION
2
HEADER
9
$INSUNITS
70
4
9
$ACADVER
1
AC1014
9
$HANDSEED
5
FFFF
0
ENDSEC
0
SECTION
2
TABLES
0
TABLE
2
VPORT
5
8
100
AcDbSymbolTable
0
ENDTAB
0
TABLE
2
LTYPE
5
5
100
AcDbSymbolTable
0
LTYPE
5
14
100
AcDbSymbolTableRecord
100
AcDbLinetypeTableRecord
2
BYBLOCK
70
0
0
LTYPE
5
15
100
AcDbSymbolTableRecord
100
AcDbLinetypeTableRecord
2
BYLAYER
70
0
0
ENDTAB
0
TABLE
2
LAYER
5
2
100
AcDbSymbolTable
70
2
0
LAYER
5
50
100
AcDbSymbolTableRecord
100
AcDbLayerTableRecord
2
0
70
0
6
CONTINUOUS
0
ENDTAB
0
TABLE
2
STYLE
5
3
100
AcDbSymbolTable
70
1
0
STYLE
5
11
100
AcDbSymbolTableRecord
100
AcDbTextStyleTableRecord
2
STANDARD
70
0
0
ENDTAB
0
TABLE
2
VIEW
5
6
100
AcDbSymbolTable
70
0
0
ENDTAB
0
TABLE
2
UCS
5
7
100
AcDbSymbolTable
70
0
0
ENDTAB
0
TABLE
2
APPID
5
9
100
AcDbSymbolTable
70
2
0
APPID
5
12
100
AcDbSymbolTableRecord
100
AcDbRegAppTableRecord
2
ACAD
70
0
0
ENDTAB
0
TABLE
2
DIMSTYLE
5
A
100
AcDbSymbolTable
70
1
0
ENDTAB
0
TABLE
2
BLOCK_RECORD
5
1
100
AcDbSymbolTable
70
1
0
BLOCK_RECORD
5
1F
100
AcDbSymbolTableRecord
100
AcDbBlockTableRecord
2
*MODEL_SPACE
0
BLOCK_RECORD
5
1B
100
AcDbSymbolTableRecord
100
AcDbBlockTableRecord
2
*PAPER_SPACE
0
ENDTAB
0
ENDSEC
0
SECTION
2
BLOCKS
0
BLOCK
5
20
100
AcDbEntity
100
AcDbBlockBegin
2
*MODEL_SPACE
0
ENDBLK
5
21
100
AcDbEntity
100
AcDbBlockEnd
0
BLOCK
5
1C
100
AcDbEntity
100
AcDbBlockBegin
2
*PAPER_SPACE
0
ENDBLK
5
1D
100
AcDbEntity
100
AcDbBlockEnd
0
ENDSEC
0
SECTION
2
ENTITIES
0
LWPOLYLINE
5
100
100
AcDbEntity
8
0
100
AcDbPolyline
90
48
70
1
43
0.0
10
-345.39725628345025
20
283.45015183215776
42
-0.22169466264285495
10
-345.97543211726071
20
285.03867688002606
10
-345.18515747037577
20
294.07155742747659
42
-0.38887873185298977
10
-335.22321048945827
20
303.19999999999999
10
-316.05163761420448
20
303.19999999999999
42
-0.19891236737963561
10
-314.63742405183137
20
302.6142135623731
10
-305.77729317660186
20
293.75408268714364
42
-0.22169466264292681
10
-305.19911734279151
20
292.16555763927522
10
-312.38687895836722
20
210.00906643346713
42
0.22169466264293919
10
-311.80870312455676
20
208.42054138559874
10
-303.05394817658498
20
199.66578643762688
42
0.19891236737965801
10
-301.63973461421187
20
199.07999999999998
10
-181.80000000000001
20
199.07999999999998
42
-0.41421356237310542
10
-179.80000000000001
20
197.07999999999998
10
-179.80000000000001
20
53.998427124746158
42
0.19891236737965834
10
-179.21421356237312
20
52.584213562373066
10
-170.38578643762696
20
43.755786437626881
42
0.19891236737965801
10
-168.97157287525388
20
43.169999999999966
10
-23.998427124746176
20
43.169999999999987
42
-0.1989123673796617
10
-22.584213562373073
20
42.584213562373073
10
-0.58578643762690974
20
20.585786437626908
42
-0.19891236737965834
10
0
20
19.171572875253812
10
0
20
10
42
-0.41421356237309503
10
-10
20
0
10
-29.171572875253812
20
3.6082248300317588e-15
42
-0.19891236737965731
10
-30.585786437626908
20
0.5857864376269073
10
-41.914213562373099
20
11.914213562373098
42
0.19891236737965762
10
-43.328427124746192
20
12.5
10
-156.67157287525382
20
12.5
42
0.19891236737965903
10
-158.08578643762692
20
11.914213562373082
10
-169.41421356237313
20
0.58578643762689042
42
-0.1989123673796378
10
-170.82842712474618
20
0
10
-199.17157287525382
20
-2.9143354396410359e-15
42
-0.19891236737964091
10
-200.58578643762689
20
0.58578643762690508
10
-211.91421356237311
20
11.914213562373098
42
0.19891236737965762
10
-213.32842712474618
20
12.5
10
-326.67157287525379
20
12.5
42
0.19891236737965518
10
-328.08578643762689
20
11.914213562373124
10
-339.41421356237305
20
0.58578643762690619
42
-0.19891236737965914
10
-340.82842712474616
20
-1.3814046671525914e-15
10
-360
20
-3.3306690738754696e-14
42
-0.44001053089183328
10
-369.9619469809175
20
10.871557427476581
10
-369.15383374565192
20
20.108333973115563
42
-0.17632698070850827
10
-368.57565791184157
20
21.34823604999335
10
-358.60449251877532
20
31.319401443059569
42
0.17632698070846659
10
-358.02631668496502
20
32.559303519937366
10
-336.90737421347029
20
273.94992054811974
42
0.2216946626429416
10
-337.4855500472807
20
275.53844559598821
0
LWPOLYLINE
5
101
100
AcDbEntity
8
0
100
AcDbPolyline
90
12
70
1
43
0.0
10
-215.00831442222187
20
41.825688514504662
10
-209.70761060381648
20
102.41301040032197
42
0.021820077622149756
10
-209.69999999999999
20
102.58732188581729
10
-209.69999999999999
20
162.99999999999997
42
0.41421356237309503
10
-211.69999999999999
20
165
10
-314.49199967914603
20
165
42
0.38887873185298638
10
-316.48438907532949
20
163.17431148549534
10
-321.78509289373483
20
102.58698959967805
42
0.021820077622149756
10
-321.79270349755132
20
102.41267811418274
10
-321.79270349755132
20
41.999999999999993
42
0.41421356237309503
10
-319.79270349755132
20
40
10
-217.00070381840536
20
40
42
0.38887873185298683
0
CIRCLE
5
102
100
AcDbEntity
8
0
100
AcDbCircle
10
-338.60116152753665
20
296.88638668405059
30
0
40
1.6000000000000003
210
0
220
-0
230
1
0
CIRCLE
5
103
100
AcDbEntity
8
0
100
AcDbCircle
10
-325.22321048945827
20
298.19999999999999
30
0
40
1.6000000000000003
210
0
220
-0
230
1
0
CIRCLE
5
104
100
AcDbEntity
8
0
100
AcDbCircle
10
-185
20
25
30
0
40
6.4999999999999858
210
0
220
0
230
1
0
LWPOLYLINE
5
105
100
AcDbEntity
8
0
100
AcDbPolyline
90
4
70
1
43
0.0
10
-327.69999999999993
20
171.59999999999999
42
-0.99999999999999989
10
-327.69999999999993
20
168.40000000000001
10
-337.69999999999993
20
168.40000000000001
42
-0.99999999999999989
10
-337.69999999999993
20
171.59999999999999
0
LWPOLYLINE
5
106
100
AcDbEntity
8
0
100
AcDbPolyline
90
4
70
1
43
0.0
10
-196.29999999999998
20
194.07999999999998
42
-0.99999999999999989
10
-193.09999999999999
20
194.07999999999998
10
-193.09999999999999
20
184.07999999999998
42
-0.99999999999999989
10
-196.29999999999998
20
184.07999999999998
0
LWPOLYLINE
5
107
100
AcDbEntity
8
0
100
AcDbPolyline
90
4
70
1
43
0.0
10
-271.30000000000001
20
35
42
-0.99999999999999989
10
-268.09999999999997
20
35
10
-268.09999999999997
20
30
42
-0.99999999999999989
10
-271.30000000000001
20
30
0
LWPOLYLINE
5
108
100
AcDbEntity
8
0
100
AcDbPolyline
90
4
70
1
43
0.0
10
-337.69999999999993
20
33.399999999999999
42
-0.99999999999999989
10
-337.69999999999993
20
36.600000000000001
10
-327.69999999999993
20
36.600000000000001
42
-0.99999999999999989
10
-327.69999999999993
20
33.399999999999999
0
CIRCLE
5
109
100
AcDbEntity
8
0
100
AcDbCircle
10
-20
20
5.0000000000000107
30
0
40
1.6000000000000003
210
0
220
-0
230
1
0
CIRCLE
5
110
100
AcDbEntity
8
0
100
AcDbCircle
10
-185
20
4.9999999999999911
30
0
40
1.6000000000000003
210
0
220
-0
230
1
0
CIRCLE
5
111
100
AcDbEntity
8
0
100
AcDbCircle
10
-363.6863866840506
20
6.6220489619216902
30
0
40
1.6000000000000003
210
0
220
-0
230
1
0
CIRCLE
5
112
100
AcDbEntity
8
0
100
AcDbCircle
10
-228.69999999999999
20
183
30
0
40
1.6000000000000003
210
0
220
-0
230
1
0
CIRCLE
5
113
100
AcDbEntity
8
0
100
AcDbCircle
10
-264.69999999999999
20
175
30
0
40
1.6000000000000003
210
0
220
-0
230
1
0
CIRCLE
5
114
100
AcDbEntity
8
0
100
AcDbCircle
10
-305.30000000000001
20
183
30
0
40
1.6000000000000003
210
0
220
-0
230
1
0
CIRCLE
5
115
100
AcDbEntity
8
0
100
AcDbCircle
10
-350
20
4.9999999999999813
30
0
40
1.6000000000000003
210
0
220
-0
230
1
0
CIRCLE
5
116
100
AcDbEntity
8
0
100
AcDbCircle
10
-6.4644660940672622
20
6.4644660940672622
30
0
40
1.6000000000000003
210
0
220
-0
230
1
0
CIRCLE
5
117
100
AcDbEntity
8
0
100
AcDbCircle
10
-194.84999999999999
20
25
30
0
40
1.6000000000000003
210
0
220
-0
230
1
0
CIRCLE
5
118
100
AcDbEntity
8
0
100
AcDbCircle
10
-175.15000000000001
20
25
30
0
40
1.6000000000000003
210
0
220
-0
230
1
0
ENDSEC
0
SECTION
2
OBJECTS
0
DICTIONARY
5
C
100
AcDbDictionary
3
ACAD_GROUP
350
D
3
ACAD_MLINESTYLE
350
17
0
DICTIONARY
5
D
100
AcDbDictionary
0
DICTIONARY
5
1A
330
C
100
AcDbDictionary
0
DICTIONARY
5
17
100
AcDbDictionary
0
ENDSEC
0
EOF
