0
SECTION
2
HEADER
9
$INSUNITS
70
4
9
$ACADVER
1
AC1014
9
$HANDSEED
5
FFFF
0
ENDSEC
0
SECTION
2
TABLES
0
TABLE
2
VPORT
5
8
100
AcDbSymbolTable
0
ENDTAB
0
TABLE
2
LTYPE
5
5
100
AcDbSymbolTable
0
LTYPE
5
14
100
AcDbSymbolTableRecord
100
AcDbLinetypeTableRecord
2
BYBLOCK
70
0
0
LTYPE
5
15
100
AcDbSymbolTableRecord
100
AcDbLinetypeTableRecord
2
BYLAYER
70
0
0
ENDTAB
0
TABLE
2
LAYER
5
2
100
AcDbSymbolTable
70
2
0
LAYER
5
50
100
AcDbSymbolTableRecord
100
AcDbLayerTableRecord
2
0
70
0
6
CONTINUOUS
0
ENDTAB
0
TABLE
2
STYLE
5
3
100
AcDbSymbolTable
70
1
0
STYLE
5
11
100
AcDbSymbolTableRecord
100
AcDbTextStyleTableRecord
2
STANDARD
70
0
0
ENDTAB
0
TABLE
2
VIEW
5
6
100
AcDbSymbolTable
70
0
0
ENDTAB
0
TABLE
2
UCS
5
7
100
AcDbSymbolTable
70
0
0
ENDTAB
0
TABLE
2
APPID
5
9
100
AcDbSymbolTable
70
2
0
APPID
5
12
100
AcDbSymbolTableRecord
100
AcDbRegAppTableRecord
2
ACAD
70
0
0
ENDTAB
0
TABLE
2
DIMSTYLE
5
A
100
AcDbSymbolTable
70
1
0
ENDTAB
0
TABLE
2
BLOCK_RECORD
5
1
100
AcDbSymbolTable
70
1
0
BLOCK_RECORD
5
1F
100
AcDbSymbolTableRecord
100
AcDbBlockTableRecord
2
*MODEL_SPACE
0
BLOCK_RECORD
5
1B
100
AcDbSymbolTableRecord
100
AcDbBlockTableRecord
2
*PAPER_SPACE
0
ENDTAB
0
ENDSEC
0
SECTION
2
BLOCKS
0
BLOCK
5
20
100
AcDbEntity
100
AcDbBlockBegin
2
*MODEL_SPACE
0
ENDBLK
5
21
100
AcDbEntity
100
AcDbBlockEnd
0
BLOCK
5
1C
100
AcDbEntity
100
AcDbBlockBegin
2
*PAPER_SPACE
0
ENDBLK
5
1D
100
AcDbEntity
100
AcDbBlockEnd
0
ENDSEC
0
SECTION
2
ENTITIES
0
LWPOLYLINE
5
100
100
AcDbEntity
8
0
100
AcDbPolyline
90
32
70
1
43
0.0
10
173.99999999999781
20
-167.99999999999761
42
-0.41421356237344364
10
171.99999999999784
20
-170
10
27.000000000000028
20
-170.00000000000003
42
-0.4142135623730957
10
25.000000000000004
20
-168
10
25.000000000000004
20
-164.69355873319671
10
14.592091491776015
20
-162.52524446065007
42
-0.35525679385004916
10
13.000000000000004
20
-160.56728362117485
10
12.999999999999998
20
-9.4327163788251589
42
-0.35525679385004766
10
14.592091491776014
20
-7.4747555393499399
10
25.000000000000004
20
-5.3064412668032812
10
25.000000000000007
20
-2.0000000000000013
42
-0.41421356237309354
10
27.000000000000011
20
0
10
171.99999999999764
20
4.5796699765787707e-14
42
-0.41421356237344514
10
173.99999999999767
20
-2.0000000000023732
10
173.99999999999585
20
-3.5000000000004423
10
195.99999999999656
20
-3.499999999999186
10
195.99999999999807
20
-1.9999999999980127
42
-0.41421356237280371
10
197.99999999999807
20
0
10
343
20
-4.3576253716537394e-14
42
-0.4142135623731053
10
345
20
-2
10
345
20
-5.3064412668032777
10
355.40790850822395
20
-7.4747555393498608
42
-0.35525679385007042
10
357
20
-9.4327163788251411
10
357
20
-160.56728362117491
42
-0.35525679385007231
10
355.40790850822395
20
-162.52524446065007
10
345
20
-164.69355873319671
10
345.00000000000006
20
-167.99999999999997
42
-0.41421356237310542
10
343
20
-170
10
197.99999999999784
20
-170.00000000000003
42
-0.41421356237276202
10
195.99999999999784
20
-168.00000000000239
10
195.99999999999611
20
-166.50000000000077
10
173.99999999999605
20
-166.49999999999955
0
CIRCLE
5
101
100
AcDbEntity
8
0
100
AcDbCircle
10
56
20
-164
30
0
40
1.7000000000000002
210
0
220
-0
230
1
0
CIRCLE
5
102
100
AcDbEntity
8
0
100
AcDbCircle
10
314
20
-164
30
0
40
1.7000000000000002
210
0
220
-0
230
1
0
CIRCLE
5
103
100
AcDbEntity
8
0
100
AcDbCircle
10
314
20
-6.0000000000000107
30
0
40
1.7000000000000002
210
0
220
-0
230
1
0
CIRCLE
5
104
100
AcDbEntity
8
0
100
AcDbCircle
10
179
20
-85
30
0
40
1.7000000000000002
210
0
220
-0
230
1
0
CIRCLE
5
105
100
AcDbEntity
8
0
100
AcDbCircle
10
56.000000000000021
20
-6.0000000000000107
30
0
40
1.7000000000000002
210
0
220
-0
230
1
0
CIRCLE
5
106
100
AcDbEntity
8
0
100
AcDbCircle
10
20.000000000000014
20
-13
30
0
40
1.6000000000000003
210
0
220
-0
230
1
0
CIRCLE
5
107
100
AcDbEntity
8
0
100
AcDbCircle
10
350
20
-157
30
0
40
1.6000000000000003
210
0
220
-0
230
1
0
CIRCLE
5
108
100
AcDbEntity
8
0
100
AcDbCircle
10
350
20
-12.99999999999998
30
0
40
1.6000000000000003
210
0
220
-0
230
1
0
CIRCLE
5
109
100
AcDbEntity
8
0
100
AcDbCircle
10
20.000000000000007
20
-157
30
0
40
1.6000000000000003
210
0
220
-0
230
1
0
CIRCLE
5
110
100
AcDbEntity
8
0
100
AcDbCircle
10
185
20
-13
30
0
40
1.6000000000000003
210
0
220
-0
230
1
0
CIRCLE
5
111
100
AcDbEntity
8
0
100
AcDbCircle
10
49.999999999999986
20
-164
30
0
40
1.6000000000000003
210
0
220
-0
230
1
0
CIRCLE
5
112
100
AcDbEntity
8
0
100
AcDbCircle
10
320
20
-6.0000000000000053
30
0
40
1.6000000000000003
210
0
220
-0
230
1
0
CIRCLE
5
113
100
AcDbEntity
8
0
100
AcDbCircle
10
320
20
-164
30
0
40
1.6000000000000003
210
0
220
-0
230
1
0
CIRCLE
5
114
100
AcDbEntity
8
0
100
AcDbCircle
10
185
20
-84.999999999999986
30
0
40
1.6000000000000003
210
0
220
-0
230
1
0
CIRCLE
5
115
100
AcDbEntity
8
0
100
AcDbCircle
10
50.000000000000007
20
-6.0000000000000053
30
0
40
1.6000000000000003
210
0
220
-0
230
1
0
CIRCLE
5
116
100
AcDbEntity
8
0
100
AcDbCircle
10
185.00000000000017
20
-156.99999999999997
30
0
40
1.6000000000000003
210
0
220
-0
230
1
0
CIRCLE
5
117
100
AcDbEntity
8
0
100
AcDbCircle
10
37.5
20
-22.499999999999996
30
0
40
2
210
0
220
-0
230
1
0
CIRCLE
5
118
100
AcDbEntity
8
0
100
AcDbCircle
10
162.5
20
-147.5
30
0
40
2
210
0
220
-0
230
1
0
CIRCLE
5
119
100
AcDbEntity
8
0
100
AcDbCircle
10
207.5
20
-147.5
30
0
40
2
210
0
220
-0
230
1
0
CIRCLE
5
120
100
AcDbEntity
8
0
100
AcDbCircle
10
332.5
20
-22.499999999999996
30
0
40
2
210
0
220
-0
230
1
0
CIRCLE
5
121
100
AcDbEntity
8
0
100
AcDbCircle
10
207.5
20
-22.499999999999996
30
0
40
2
210
0
220
-0
230
1
0
CIRCLE
5
122
100
AcDbEntity
8
0
100
AcDbCircle
10
332.5
20
-147.5
30
0
40
2
210
0
220
-0
230
1
0
CIRCLE
5
123
100
AcDbEntity
8
0
100
AcDbCircle
10
162.5
20
-22.499999999999996
30
0
40
2
210
0
220
-0
230
1
0
CIRCLE
5
124
100
AcDbEntity
8
0
100
AcDbCircle
10
37.5
20
-147.5
30
0
40
2
210
0
220
-0
230
1
0
LWPOLYLINE
5
125
100
AcDbEntity
8
0
100
AcDbPolyline
90
16
70
1
43
0.0
10
170
20
-111.53617985861604
10
170
20
-58.439655433132359
42
0.091258087073548835
10
169.86894336370636
20
-57.727580505011701
42
0.21386082056422592
10
127.27241949498826
20
-15.131056636293636
42
0.091258087073542313
10
126.56034456686766
20
-15
10
73.43795072940469
20
-14.999999999999993
42
0.090841575173363526
10
72.728964919551686
20
-15.129882591539463
42
0.21472493447914281
10
30.129882591539499
20
-57.728964919551601
42
0.090841575173365649
10
30
20
-58.437950729404626
10
30.000000000000004
20
-111.53657045354774
42
0.097054484753808568
10
30.147913480397541
20
-112.29140521951106
42
0.20187330614490953
10
72.708594780488966
20
-154.85208651960247
42
0.097054484753805959
10
73.463429546452261
20
-155
10
126.53617985861595
20
-155
42
0.097149520488823318
10
127.29171205224112
20
-154.85180212344517
42
0.20167734392950498
10
169.85180212344511
20
-112.29171205224122
42
0.097149520488827176
0
LWPOLYLINE
5
126
100
AcDbEntity
8
0
100
AcDbPolyline
90
16
70
1
43
0.0
10
340
20
-111.53657045354788
10
340
20
-58.437950729404697
42
0.090841575173365732
10
339.87011740846049
20
-57.728964919551665
42
0.21472493447914295
10
297.27103508044831
20
-15.129882591539488
42
0.090841575173367856
10
296.56204927059525
20
-15
10
243.43965543313237
20
-14.999999999999993
42
0.09125808707355576
10
242.72758050501167
20
-15.131056636293643
42
0.21386082056422601
10
200.13105663629364
20
-57.727580505011744
42
0.091258087073543492
10
200
20
-58.439655433132359
10
200.00000000000003
20
-111.53617985861599
42
0.097149520488829244
10
200.14819787655489
20
-112.29171205224119
42
0.20167734392950559
10
242.70828794775883
20
-154.85180212344514
42
0.097149520488826205
10
243.46382014138402
20
-155
10
296.53657045354771
20
-155
42
0.097054484753804987
10
297.29140521951098
20
-154.85208651960247
42
0.20187330614490845
10
339.85208651960244
20
-112.29140521951116
42
0.097054484753805084
0
ENDSEC
0
SECTION
2
OBJECTS
0
DICTIONARY
5
C
100
AcDbDictionary
3
ACAD_GROUP
350
D
3
ACAD_MLINESTYLE
350
17
0
DICTIONARY
5
D
100
AcDbDictionary
0
DICTIONARY
5
1A
330
C
100
AcDbDictionary
0
DICTIONARY
5
17
100
AcDbDictionary
0
ENDSEC
0
EOF
