0
SECTION
2
HEADER
9
$INSUNITS
70
4
9
$ACADVER
1
AC1014
9
$HANDSEED
5
FFFF
0
ENDSEC
0
SECTION
2
TABLES
0
TABLE
2
VPORT
5
8
100
AcDbSymbolTable
0
ENDTAB
0
TABLE
2
LTYPE
5
5
100
AcDbSymbolTable
0
LTYPE
5
14
100
AcDbSymbolTableRecord
100
AcDbLinetypeTableRecord
2
BYBLOCK
70
0
0
LTYPE
5
15
100
AcDbSymbolTableRecord
100
AcDbLinetypeTableRecord
2
BYLAYER
70
0
0
ENDTAB
0
TABLE
2
LAYER
5
2
100
AcDbSymbolTable
70
2
0
LAYER
5
50
100
AcDbSymbolTableRecord
100
AcDbLayerTableRecord
2
0
70
0
6
CONTINUOUS
0
ENDTAB
0
TABLE
2
STYLE
5
3
100
AcDbSymbolTable
70
1
0
STYLE
5
11
100
AcDbSymbolTableRecord
100
AcDbTextStyleTableRecord
2
STANDARD
70
0
0
ENDTAB
0
TABLE
2
VIEW
5
6
100
AcDbSymbolTable
70
0
0
ENDTAB
0
TABLE
2
UCS
5
7
100
AcDbSymbolTable
70
0
0
ENDTAB
0
TABLE
2
APPID
5
9
100
AcDbSymbolTable
70
2
0
APPID
5
12
100
AcDbSymbolTableRecord
100
AcDbRegAppTableRecord
2
ACAD
70
0
0
ENDTAB
0
TABLE
2
DIMSTYLE
5
A
100
AcDbSymbolTable
70
1
0
ENDTAB
0
TABLE
2
BLOCK_RECORD
5
1
100
AcDbSymbolTable
70
1
0
BLOCK_RECORD
5
1F
100
AcDbSymbolTableRecord
100
AcDbBlockTableRecord
2
*MODEL_SPACE
0
BLOCK_RECORD
5
1B
100
AcDbSymbolTableRecord
100
AcDbBlockTableRecord
2
*PAPER_SPACE
0
ENDTAB
0
ENDSEC
0
SECTION
2
BLOCKS
0
BLOCK
5
20
100
AcDbEntity
100
AcDbBlockBegin
2
*MODEL_SPACE
0
ENDBLK
5
21
100
AcDbEntity
100
AcDbBlockEnd
0
BLOCK
5
1C
100
AcDbEntity
100
AcDbBlockBegin
2
*PAPER_SPACE
0
ENDBLK
5
1D
100
AcDbEntity
100
AcDbBlockEnd
0
ENDSEC
0
SECTION
2
ENTITIES
0
CIRCLE
5
100
100
AcDbEntity
8
0
100
AcDbCircle
10
-325.22321048945832
20
-4.9999999999999947
30
0
40
1.6000000000000003
210
0
220
-0
230
1
0
CIRCLE
5
101
100
AcDbEntity
8
0
100
AcDbCircle
10
-325.22321048945827
20
-149.00000000000003
30
0
40
1.6000000000000003
210
0
220
-0
230
1
0
CIRCLE
5
102
100
AcDbEntity
8
0
100
AcDbCircle
10
-20
20
-149.00000000000003
30
0
40
1.6000000000000003
210
0
220
-0
230
1
0
CIRCLE
5
103
100
AcDbEntity
8
0
100
AcDbCircle
10
-175.49999999999997
20
-139.49999999999997
30
0
40
1.6000000000000003
210
0
220
-0
230
1
0
CIRCLE
5
104
100
AcDbEntity
8
0
100
AcDbCircle
10
-300.5
20
-139.49999999999997
30
0
40
1.6000000000000003
210
0
220
-0
230
1
0
CIRCLE
5
105
100
AcDbEntity
8
0
100
AcDbCircle
10
-160.49999999999997
20
-139.49999999999997
30
0
40
1.6000000000000003
210
0
220
-0
230
1
0
CIRCLE
5
106
100
AcDbEntity
8
0
100
AcDbCircle
10
-35.499999999999972
20
-139.49999999999997
30
0
40
1.6000000000000003
210
0
220
-0
230
1
0
LWPOLYLINE
5
107
100
AcDbEntity
8
0
100
AcDbPolyline
90
4
70
1
43
0.0
10
-151.75
20
-97.999999999999986
42
-0.99999999999999989
10
-151.75
20
-107.99999999999999
10
-184.24999999999997
20
-107.99999999999999
42
-0.99999999999999989
10
-184.24999999999997
20
-97.999999999999986
0
LWPOLYLINE
5
108
100
AcDbEntity
8
0
100
AcDbPolyline
90
4
70
1
43
0.0
10
-151.75
20
-72
42
-0.99999999999999989
10
-151.75
20
-82
10
-184.24999999999997
20
-81.999999999999972
42
-0.99999999999999989
10
-184.24999999999997
20
-72
0
LWPOLYLINE
5
109
100
AcDbEntity
8
0
100
AcDbPolyline
90
4
70
1
43
0.0
10
-197.24999999999997
20
-72
42
-0.99999999999999989
10
-197.24999999999997
20
-82
10
-229.74999999999997
20
-81.999999999999972
42
-0.99999999999999989
10
-229.74999999999997
20
-72
0
LWPOLYLINE
5
110
100
AcDbEntity
8
0
100
AcDbPolyline
90
4
70
1
43
0.0
10
-242.75
20
-72
42
-0.99999999999999989
10
-242.75
20
-82
10
-275.25
20
-81.999999999999972
42
-0.99999999999999989
10
-275.25
20
-72
0
ARC
5
111
100
AcDbEntity
8
0
100
AcDbCircle
10
-288.25
20
-24.999999999999982
30
0
40
4.9999999999999911
210
0
220
0
230
1
100
AcDbArc
50
-90
51
90
0
LINE
5
112
100
AcDbEntity
8
0
100
AcDbLine
10
-288.25
20
-29.999999999999972
30
0
11
-303
21
-30
31
0
0
ARC
5
113
100
AcDbEntity
8
0
100
AcDbCircle
10
-303
20
-25
30
0
40
5
210
0
220
-0
230
1
100
AcDbArc
50
90
51
270
0
LINE
5
114
100
AcDbEntity
8
0
100
AcDbLine
10
-303
20
-20
30
0
11
-288.25
21
-19.999999999999993
31
0
0
LWPOLYLINE
5
115
100
AcDbEntity
8
0
100
AcDbPolyline
90
4
70
1
43
0.0
10
-60.749999999999993
20
-97.999999999999986
42
-0.99999999999999989
10
-60.749999999999993
20
-107.99999999999999
10
-93.25
20
-107.99999999999999
42
-0.99999999999999989
10
-93.25
20
-97.999999999999986
0
LWPOLYLINE
5
116
100
AcDbEntity
8
0
100
AcDbPolyline
90
4
70
1
43
0.0
10
-303
20
-134
42
-0.99999999999999989
10
-303
20
-124
10
-288.25
20
-123.99999999999999
42
-0.99999999999999989
10
-288.25
20
-134
0
LWPOLYLINE
5
117
100
AcDbEntity
8
0
100
AcDbPolyline
90
4
70
1
43
0.0
10
-106.25
20
-97.999999999999986
42
-0.99999999999999989
10
-106.25
20
-107.99999999999999
10
-138.75
20
-107.99999999999999
42
-0.99999999999999989
10
-138.75
20
-97.999999999999986
0
LWPOLYLINE
5
118
100
AcDbEntity
8
0
100
AcDbPolyline
90
4
70
1
43
0.0
10
-32.999999999999979
20
-97.999999999999986
42
-0.99999999999999989
10
-32.999999999999964
20
-107.99999999999999
10
-47.749999999999986
20
-108
42
-0.99999999999999989
10
-47.749999999999986
20
-98
0
LWPOLYLINE
5
119
100
AcDbEntity
8
0
100
AcDbPolyline
90
4
70
1
43
0.0
10
-242.75
20
-45.999999999999979
42
-0.99999999999999989
10
-242.75
20
-55.999999999999979
10
-275.25
20
-55.999999999999979
42
-0.99999999999999989
10
-275.25
20
-45.999999999999979
0
LWPOLYLINE
5
120
100
AcDbEntity
8
0
100
AcDbPolyline
90
4
70
1
43
0.0
10
-106.25
20
-72
42
-0.99999999999999989
10
-106.25
20
-82
10
-138.75000000000003
20
-81.999999999999972
42
-0.99999999999999989
10
-138.75
20
-72
0
LWPOLYLINE
5
121
100
AcDbEntity
8
0
100
AcDbPolyline
90
4
70
1
43
0.0
10
-60.750000000000014
20
-72
42
-0.99999999999999989
10
-60.749999999999993
20
-82
10
-93.250000000000028
20
-81.999999999999972
42
-0.99999999999999989
10
-93.25
20
-72
0
LWPOLYLINE
5
122
100
AcDbEntity
8
0
100
AcDbPolyline
90
4
70
1
43
0.0
10
-197.24999999999997
20
-45.999999999999979
42
-0.99999999999999989
10
-197.24999999999997
20
-55.999999999999979
10
-229.74999999999997
20
-55.999999999999979
42
-0.99999999999999989
10
-229.74999999999997
20
-45.999999999999979
0
LWPOLYLINE
5
123
100
AcDbEntity
8
0
100
AcDbPolyline
90
4
70
1
43
0.0
10
-151.75
20
-45.999999999999979
42
-0.99999999999999989
10
-151.75
20
-55.999999999999979
10
-184.24999999999997
20
-55.999999999999979
42
-0.99999999999999989
10
-184.24999999999997
20
-45.999999999999979
0
LWPOLYLINE
5
124
100
AcDbEntity
8
0
100
AcDbPolyline
90
4
70
1
43
0.0
10
-106.25
20
-45.999999999999979
42
-0.99999999999999989
10
-106.25
20
-55.999999999999979
10
-138.75
20
-55.999999999999979
42
-0.99999999999999989
10
-138.75
20
-45.999999999999979
0
ARC
5
125
100
AcDbEntity
8
0
100
AcDbCircle
10
-32.999999999999972
20
-24.999999999999979
30
0
40
4.9999999999999956
210
0
220
0
230
1
100
AcDbArc
50
-89.999999999999901
51
90.000000000000099
0
LINE
5
126
100
AcDbEntity
8
0
100
AcDbLine
10
-32.999999999999964
20
-29.999999999999972
30
0
11
-47.749999999999986
21
-30
31
0
0
ARC
5
127
100
AcDbEntity
8
0
100
AcDbCircle
10
-47.749999999999986
20
-25
30
0
40
5
210
0
220
-0
230
1
100
AcDbArc
50
90
51
270
0
LINE
5
128
100
AcDbEntity
8
0
100
AcDbLine
10
-47.749999999999986
20
-20
30
0
11
-32.999999999999979
21
-19.999999999999982
31
0
0
LWPOLYLINE
5
129
100
AcDbEntity
8
0
100
AcDbPolyline
90
4
70
1
43
0.0
10
-288.25
20
-97.999999999999986
42
-0.99999999999999989
10
-288.25
20
-107.99999999999999
10
-303
20
-108
42
-0.99999999999999989
10
-303
20
-98
0
LWPOLYLINE
5
130
100
AcDbEntity
8
0
100
AcDbPolyline
90
4
70
1
43
0.0
10
-288.25
20
-72
42
-0.99999999999999989
10
-288.25
20
-81.999999999999972
10
-303
20
-82.000000000000014
42
-0.99999999999999989
10
-303
20
-72
0
LWPOLYLINE
5
131
100
AcDbEntity
8
0
100
AcDbPolyline
90
4
70
1
43
0.0
10
-60.749999999999993
20
-45.999999999999979
42
-0.99999999999999989
10
-60.749999999999993
20
-55.999999999999979
10
-93.25
20
-55.999999999999979
42
-0.99999999999999989
10
-93.25
20
-45.999999999999979
0
LWPOLYLINE
5
132
100
AcDbEntity
8
0
100
AcDbPolyline
90
4
70
1
43
0.0
10
-32.999999999999979
20
-72
42
-0.99999999999999989
10
-32.999999999999964
20
-81.999999999999972
10
-47.749999999999972
20
-82.000000000000014
42
-0.99999999999999989
10
-47.749999999999986
20
-72
0
LWPOLYLINE
5
133
100
AcDbEntity
8
0
100
AcDbPolyline
90
4
70
1
43
0.0
10
-60.749999999999993
20
-19.999999999999982
42
-0.99999999999999989
10
-60.749999999999993
20
-29.999999999999982
10
-93.25
20
-29.999999999999986
42
-0.99999999999999989
10
-93.25
20
-19.999999999999979
0
LWPOLYLINE
5
134
100
AcDbEntity
8
0
100
AcDbPolyline
90
4
70
1
43
0.0
10
-242.75
20
-19.999999999999982
42
-0.99999999999999989
10
-242.75
20
-29.999999999999982
10
-275.25
20
-29.999999999999986
42
-0.99999999999999989
10
-275.25
20
-19.999999999999979
0
LWPOLYLINE
5
135
100
AcDbEntity
8
0
100
AcDbPolyline
90
4
70
1
43
0.0
10
-197.24999999999997
20
-19.999999999999982
42
-0.99999999999999989
10
-197.24999999999997
20
-29.999999999999982
10
-229.74999999999997
20
-29.999999999999986
42
-0.99999999999999989
10
-229.74999999999997
20
-19.999999999999979
0
ARC
5
136
100
AcDbEntity
8
0
100
AcDbCircle
10
-151.75
20
-24.999999999999982
30
0
40
5
210
0
220
0
230
1
100
AcDbArc
50
-90
51
90
0
LINE
5
137
100
AcDbEntity
8
0
100
AcDbLine
10
-151.75
20
-29.999999999999982
30
0
11
-184.24999999999997
21
-29.999999999999986
31
0
0
ARC
5
138
100
AcDbEntity
8
0
100
AcDbCircle
10
-184.24999999999997
20
-24.999999999999982
30
0
40
5.0000000000000044
210
0
220
-0
230
1
100
AcDbArc
50
90
51
270
0
LINE
5
139
100
AcDbEntity
8
0
100
AcDbLine
10
-184.24999999999997
20
-19.999999999999982
30
0
11
-151.75
21
-19.999999999999982
31
0
0
LWPOLYLINE
5
140
100
AcDbEntity
8
0
100
AcDbPolyline
90
4
70
1
43
0.0
10
-288.25
20
-45.999999999999986
42
-0.99999999999999989
10
-288.25
20
-55.999999999999972
10
-303
20
-56
42
-0.99999999999999989
10
-303
20
-46
0
LWPOLYLINE
5
141
100
AcDbEntity
8
0
100
AcDbPolyline
90
4
70
1
43
0.0
10
-32.999999999999986
20
-45.999999999999986
42
-0.99999999999999989
10
-32.999999999999964
20
-55.999999999999972
10
-47.749999999999986
20
-56
42
-0.99999999999999989
10
-47.749999999999986
20
-46
0
LWPOLYLINE
5
142
100
AcDbEntity
8
0
100
AcDbPolyline
90
4
70
1
43
0.0
10
-32.999999999999979
20
-123.99999999999999
42
-0.99999999999999989
10
-32.999999999999964
20
-134
10
-47.749999999999986
20
-134
42
-0.99999999999999989
10
-47.749999999999986
20
-124
0
LWPOLYLINE
5
143
100
AcDbEntity
8
0
100
AcDbPolyline
90
4
70
1
43
0.0
10
-106.25
20
-19.999999999999982
42
-0.99999999999999989
10
-106.25
20
-29.999999999999982
10
-138.75
20
-29.999999999999986
42
-0.99999999999999989
10
-138.75
20
-19.999999999999979
0
LWPOLYLINE
5
144
100
AcDbEntity
8
0
100
AcDbPolyline
90
4
70
1
43
0.0
10
-129.00000000000003
20
-58.999999999999986
42
-0.99999999999999989
10
-129.00000000000003
20
-68.999999999999986
10
-161.5
20
-69.000000000000014
42
-0.99999999999999989
10
-161.50000000000006
20
-58.999999999999957
0
LWPOLYLINE
5
145
100
AcDbEntity
8
0
100
AcDbPolyline
90
4
70
1
43
0.0
10
-83.500000000000014
20
-58.999999999999986
42
-0.99999999999999989
10
-83.500000000000014
20
-68.999999999999986
10
-115.99999999999997
20
-69.000000000000014
42
-0.99999999999999989
10
-116.00000000000006
20
-58.999999999999957
0
LWPOLYLINE
5
146
100
AcDbEntity
8
0
100
AcDbPolyline
90
4
70
1
43
0.0
10
-38.000000000000007
20
-58.999999999999986
42
-0.99999999999999989
10
-38.000000000000007
20
-68.999999999999986
10
-70.499999999999972
20
-69.000000000000014
42
-0.99999999999999989
10
-70.500000000000043
20
-58.999999999999957
0
LWPOLYLINE
5
147
100
AcDbEntity
8
0
100
AcDbPolyline
90
4
70
1
43
0.0
10
-265.5
20
-32.999999999999986
42
-0.99999999999999989
10
-265.5
20
-42.999999999999986
10
-298
20
-43.000000000000014
42
-0.99999999999999989
10
-298.00000000000006
20
-32.999999999999964
0
LWPOLYLINE
5
148
100
AcDbEntity
8
0
100
AcDbPolyline
90
4
70
1
43
0.0
10
-220
20
-32.999999999999986
42
-0.99999999999999989
10
-220
20
-42.999999999999986
10
-252.49999999999997
20
-43.000000000000014
42
-0.99999999999999989
10
-252.50000000000003
20
-32.999999999999964
0
LWPOLYLINE
5
149
100
AcDbEntity
8
0
100
AcDbPolyline
90
4
70
1
43
0.0
10
-174.5
20
-32.999999999999957
42
-0.99999999999999989
10
-174.50000000000006
20
-42.999999999999986
10
-207.00000000000006
20
-43.000000000000014
42
-0.99999999999999989
10
-207
20
-32.999999999999964
0
LWPOLYLINE
5
150
100
AcDbEntity
8
0
100
AcDbPolyline
90
6
70
1
43
0.0
10
-41.499999999999986
20
-14.999999999999998
10
-41.499999999999986
20
-8.9999999999999893
42
0.41421356237309503
10
-43.499999999999986
20
-6.9999999999999893
10
-70.500000000000043
20
-6.9999999999999662
42
0.99999999999999989
10
-70.499999999999972
20
-17.000000000000021
10
-43.499999999999986
20
-16.999999999999996
42
0.41421356237309503
0
LWPOLYLINE
5
151
100
AcDbEntity
8
0
100
AcDbPolyline
90
4
70
1
43
0.0
10
-83.500000000000014
20
-6.9999999999999929
42
-0.99999999999999989
10
-83.500000000000014
20
-16.999999999999993
10
-115.99999999999997
20
-17.000000000000021
42
-0.99999999999999989
10
-116.00000000000006
20
-6.9999999999999662
0
LWPOLYLINE
5
152
100
AcDbEntity
8
0
100
AcDbPolyline
90
6
70
1
43
0.0
10
-129.00000000000003
20
-6.9999999999999929
42
-0.99999999999999989
10
-129.00000000000003
20
-16.999999999999993
10
-152.49999999999997
20
-17.000000000000004
42
-0.41421356237309503
10
-154.49999999999994
20
-15.000000000000011
10
-154.49999999999994
20
-8.9999999999999787
42
-0.41421356237309503
10
-152.49999999999997
20
-6.9999999999999787
0
LWPOLYLINE
5
153
100
AcDbEntity
8
0
100
AcDbPolyline
90
4
70
1
43
0.0
10
-265.5
20
-111
42
-0.99999999999999989
10
-265.5
20
-121
10
-298.00000000000006
20
-121.00000000000001
42
-0.99999999999999989
10
-298.00000000000006
20
-110.99999999999997
0
LWPOLYLINE
5
154
100
AcDbEntity
8
0
100
AcDbPolyline
90
4
70
1
43
0.0
10
-220
20
-111
42
-0.99999999999999989
10
-220
20
-121
10
-252.49999999999997
20
-120.99999999999997
42
-0.99999999999999989
10
-252.50000000000003
20
-110.99999999999997
0
LWPOLYLINE
5
155
100
AcDbEntity
8
0
100
AcDbPolyline
90
4
70
1
43
0.0
10
-174.5
20
-110.99999999999996
42
-0.99999999999999989
10
-174.50000000000006
20
-121
10
-207.00000000000006
20
-121.00000000000001
42
-0.99999999999999989
10
-207
20
-110.99999999999997
0
LWPOLYLINE
5
156
100
AcDbEntity
8
0
100
AcDbPolyline
90
4
70
1
43
0.0
10
-129.00000000000003
20
-111
42
-0.99999999999999989
10
-129.00000000000003
20
-121
10
-161.50000000000006
20
-121.00000000000001
42
-0.99999999999999989
10
-161.50000000000006
20
-110.99999999999997
0
LWPOLYLINE
5
157
100
AcDbEntity
8
0
100
AcDbPolyline
90
4
70
1
43
0.0
10
-83.500000000000014
20
-111
42
-0.99999999999999989
10
-83.500000000000014
20
-121
10
-116.00000000000001
20
-121.00000000000001
42
-0.99999999999999989
10
-116.00000000000006
20
-110.99999999999997
0
LWPOLYLINE
5
158
100
AcDbEntity
8
0
100
AcDbPolyline
90
4
70
1
43
0.0
10
-38.000000000000007
20
-111
42
-0.99999999999999989
10
-38.000000000000007
20
-121
10
-70.499999999999986
20
-121.00000000000001
42
-0.99999999999999989
10
-70.500000000000043
20
-110.99999999999997
0
LWPOLYLINE
5
159
100
AcDbEntity
8
0
100
AcDbPolyline
90
4
70
1
43
0.0
10
-265.5
20
-85
42
-0.99999999999999989
10
-265.5
20
-95
10
-298
20
-95.000000000000028
42
-0.99999999999999989
10
-298.00000000000006
20
-84.999999999999972
0
LWPOLYLINE
5
160
100
AcDbEntity
8
0
100
AcDbPolyline
90
4
70
1
43
0.0
10
-220
20
-85
42
-0.99999999999999989
10
-220
20
-95
10
-252.49999999999997
20
-95.000000000000028
42
-0.99999999999999989
10
-252.50000000000003
20
-84.999999999999972
0
LWPOLYLINE
5
161
100
AcDbEntity
8
0
100
AcDbPolyline
90
4
70
1
43
0.0
10
-174.5
20
-84.999999999999972
42
-0.99999999999999989
10
-174.50000000000006
20
-95
10
-207.00000000000006
20
-95.000000000000028
42
-0.99999999999999989
10
-207
20
-84.999999999999972
0
LWPOLYLINE
5
162
100
AcDbEntity
8
0
100
AcDbPolyline
90
4
70
1
43
0.0
10
-129.00000000000003
20
-85
42
-0.99999999999999989
10
-129.00000000000003
20
-95
10
-161.5
20
-95.000000000000028
42
-0.99999999999999989
10
-161.50000000000006
20
-84.999999999999972
0
LWPOLYLINE
5
163
100
AcDbEntity
8
0
100
AcDbPolyline
90
4
70
1
43
0.0
10
-83.500000000000014
20
-85
42
-0.99999999999999989
10
-83.500000000000014
20
-95
10
-115.99999999999997
20
-95.000000000000028
42
-0.99999999999999989
10
-116.00000000000006
20
-84.999999999999972
0
LWPOLYLINE
5
164
100
AcDbEntity
8
0
100
AcDbPolyline
90
4
70
1
43
0.0
10
-38.000000000000007
20
-85
42
-0.99999999999999989
10
-38.000000000000007
20
-95
10
-70.499999999999972
20
-95.000000000000028
42
-0.99999999999999989
10
-70.500000000000043
20
-84.999999999999972
0
LWPOLYLINE
5
165
100
AcDbEntity
8
0
100
AcDbPolyline
90
4
70
1
43
0.0
10
-265.5
20
-58.999999999999986
42
-0.99999999999999989
10
-265.5
20
-68.999999999999986
10
-298
20
-69.000000000000014
42
-0.99999999999999989
10
-298.00000000000006
20
-58.999999999999957
0
LWPOLYLINE
5
166
100
AcDbEntity
8
0
100
AcDbPolyline
90
4
70
1
43
0.0
10
-220
20
-58.999999999999986
42
-0.99999999999999989
10
-220
20
-68.999999999999986
10
-252.49999999999997
20
-69.000000000000014
42
-0.99999999999999989
10
-252.50000000000003
20
-58.999999999999957
0
LWPOLYLINE
5
167
100
AcDbEntity
8
0
100
AcDbPolyline
90
4
70
1
43
0.0
10
-275.25
20
-134
42
-0.99999999999999989
10
-275.25
20
-123.99999999999999
10
-242.75
20
-123.99999999999999
42
-0.99999999999999989
10
-242.75
20
-134
0
LWPOLYLINE
5
168
100
AcDbEntity
8
0
100
AcDbPolyline
90
4
70
1
43
0.0
10
-174.5
20
-58.99999999999995
42
-0.99999999999999989
10
-174.50000000000006
20
-68.999999999999986
10
-207.00000000000006
20
-69.000000000000014
42
-0.99999999999999989
10
-207
20
-58.999999999999957
0
LWPOLYLINE
5
169
100
AcDbEntity
8
0
100
AcDbPolyline
90
4
70
1
43
0.0
10
-197.24999999999997
20
-123.99999999999999
42
-0.99999999999999989
10
-197.24999999999997
20
-134
10
-229.74999999999997
20
-134
42
-0.99999999999999989
10
-229.74999999999997
20
-123.99999999999999
0
LWPOLYLINE
5
170
100
AcDbEntity
8
0
100
AcDbPolyline
90
4
70
1
43
0.0
10
-151.75
20
-123.99999999999999
42
-0.99999999999999989
10
-151.75
20
-134
10
-184.24999999999997
20
-134
42
-0.99999999999999989
10
-184.24999999999997
20
-123.99999999999999
0
LWPOLYLINE
5
171
100
AcDbEntity
8
0
100
AcDbPolyline
90
4
70
1
43
0.0
10
-106.25
20
-123.99999999999999
42
-0.99999999999999989
10
-106.25
20
-134
10
-138.75
20
-134
42
-0.99999999999999989
10
-138.75
20
-123.99999999999999
0
LWPOLYLINE
5
172
100
AcDbEntity
8
0
100
AcDbPolyline
90
4
70
1
43
0.0
10
-60.749999999999993
20
-123.99999999999999
42
-0.99999999999999989
10
-60.749999999999993
20
-134
10
-93.25
20
-134
42
-0.99999999999999989
10
-93.25
20
-123.99999999999999
0
LWPOLYLINE
5
173
100
AcDbEntity
8
0
100
AcDbPolyline
90
4
70
1
43
0.0
10
-242.75
20
-97.999999999999986
42
-0.99999999999999989
10
-242.75
20
-107.99999999999999
10
-275.25
20
-107.99999999999999
42
-0.99999999999999989
10
-275.25
20
-97.999999999999986
0
LWPOLYLINE
5
174
100
AcDbEntity
8
0
100
AcDbPolyline
90
4
70
1
43
0.0
10
-197.24999999999997
20
-97.999999999999986
42
-0.99999999999999989
10
-197.24999999999997
20
-107.99999999999999
10
-229.74999999999997
20
-107.99999999999999
42
-0.99999999999999989
10
-229.74999999999997
20
-97.999999999999986
0
LWPOLYLINE
5
175
100
AcDbEntity
8
0
100
AcDbPolyline
90
4
70
1
43
0.0
10
-129.00000000000003
20
-32.999999999999986
42
-0.99999999999999989
10
-129.00000000000003
20
-42.999999999999986
10
-161.5
20
-43.000000000000014
42
-0.99999999999999989
10
-161.50000000000006
20
-32.999999999999964
0
LWPOLYLINE
5
176
100
AcDbEntity
8
0
100
AcDbPolyline
90
4
70
1
43
0.0
10
-83.500000000000014
20
-32.999999999999986
42
-0.99999999999999989
10
-83.500000000000014
20
-42.999999999999986
10
-115.99999999999997
20
-43.000000000000014
42
-0.99999999999999989
10
-116.00000000000006
20
-32.999999999999964
0
LWPOLYLINE
5
177
100
AcDbEntity
8
0
100
AcDbPolyline
90
4
70
1
43
0.0
10
-38.000000000000007
20
-32.999999999999986
42
-0.99999999999999989
10
-38.000000000000007
20
-42.999999999999986
10
-70.499999999999972
20
-43.000000000000014
42
-0.99999999999999989
10
-70.500000000000043
20
-32.999999999999964
0
LWPOLYLINE
5
178
100
AcDbEntity
8
0
100
AcDbPolyline
90
6
70
1
43
0.0
10
-265.5
20
-6.9999999999999929
42
-0.99999999999999989
10
-265.5
20
-16.999999999999993
10
-292.49999999999994
20
-17.000000000000007
42
-0.41421356237309503
10
-294.49999999999994
20
-15.000000000000016
10
-294.49999999999994
20
-8.9999999999999787
42
-0.41421356237309503
10
-292.49999999999994
20
-6.9999999999999769
0
LWPOLYLINE
5
179
100
AcDbEntity
8
0
100
AcDbPolyline
90
4
70
1
43
0.0
10
-220
20
-6.9999999999999929
42
-0.99999999999999989
10
-220
20
-16.999999999999993
10
-252.49999999999997
20
-17.000000000000021
42
-0.99999999999999989
10
-252.50000000000003
20
-6.9999999999999662
0
LWPOLYLINE
5
180
100
AcDbEntity
8
0
100
AcDbPolyline
90
6
70
1
43
0.0
10
-207
20
-17.000000000000021
10
-183.49999999999997
20
-17
42
0.41421356237309503
10
-181.5
20
-15.000000000000002
10
-181.5
20
-8.9999999999999876
42
0.41421356237309503
10
-183.49999999999997
20
-6.9999999999999885
10
-207
20
-6.9999999999999662
42
0.99999999999999989
0
LWPOLYLINE
5
181
100
AcDbEntity
8
0
100
AcDbPolyline
90
4
70
1
43
0.0
10
-83.500000000000014
20
-137
42
-0.99999999999999989
10
-83.500000000000014
20
-147
10
-115.99999999999997
20
-147.00000000000003
42
-0.99999999999999989
10
-116.00000000000006
20
-136.99999999999994
0
LWPOLYLINE
5
182
100
AcDbEntity
8
0
100
AcDbPolyline
90
6
70
1
43
0.0
10
-129.00000000000003
20
-137
42
-0.99999999999999989
10
-129.00000000000003
20
-147
10
-152.49999999999997
20
-147.00000000000003
42
-0.41421356237309503
10
-154.49999999999994
20
-145.00000000000003
10
-154.49999999999994
20
-138.99999999999997
42
-0.41421356237309503
10
-152.49999999999997
20
-136.99999999999997
0
LWPOLYLINE
5
183
100
AcDbEntity
8
0
100
AcDbPolyline
90
4
70
1
43
0.0
10
-220
20
-137
42
-0.99999999999999989
10
-220
20
-147
10
-252.49999999999997
20
-147.00000000000003
42
-0.99999999999999989
10
-252.50000000000003
20
-136.99999999999994
0
LWPOLYLINE
5
184
100
AcDbEntity
8
0
100
AcDbPolyline
90
6
70
1
43
0.0
10
-41.499999999999986
20
-145
10
-41.499999999999986
20
-139
42
0.41421356237309503
10
-43.499999999999986
20
-137
10
-70.500000000000043
20
-136.99999999999994
42
0.99999999999999989
10
-70.499999999999972
20
-147.00000000000003
10
-43.499999999999986
20
-147
42
0.41421356237309503
0
LWPOLYLINE
5
185
100
AcDbEntity
8
0
100
AcDbPolyline
90
6
70
1
43
0.0
10
-181.5
20
-145
10
-181.5
20
-138.99999999999997
42
0.41421356237309503
10
-183.49999999999997
20
-137
10
-207
20
-136.99999999999994
42
0.99999999999999989
10
-207
20
-147.00000000000003
10
-183.49999999999997
20
-147
42
0.41421356237309503
0
LWPOLYLINE
5
186
100
AcDbEntity
8
0
100
AcDbPolyline
90
6
70
1
43
0.0
10
-265.5
20
-137
10
-292.49999999999994
20
-136.99999999999997
42
0.41421356237309503
10
-294.49999999999994
20
-139
10
-294.49999999999994
20
-145.00000000000003
42
0.41421356237309503
10
-292.49999999999994
20
-147.00000000000003
10
-265.5
20
-147
42
0.99999999999999989
0
LWPOLYLINE
5
187
100
AcDbEntity
8
0
100
AcDbPolyline
90
20
70
1
43
0.0
10
-25
20
-156.69355873319674
10
-24.999999999999993
20
-160
42
-0.41421356237309631
10
-26.999999999999993
20
-162
10
-318.22321048945815
20
-161.99999999999994
42
-0.41421356237308721
10
-320.22321048945821
20
-160
10
-320.22321048945821
20
-156.69355873319671
10
-330.63111899768228
20
-154.5252444606501
42
-0.35525679385002623
10
-332.22321048945821
20
-152.56728362117485
10
-332.22321048945815
20
-1.4327163788251382
42
-0.35525679385006126
10
-330.63111899768217
20
0.52524446065012498
10
-320.22321048945827
20
2.6935587331967259
10
-320.22321048945827
20
6.0000000000000071
42
-0.41421356237309404
10
-318.22321048945827
20
7.9999999999999893
10
-26.999999999999993
20
8.0000000000000462
42
-0.41421356237309426
10
-25
20
6.0000000000000409
10
-25
20
2.6935587331967703
10
-14.59209149177601
20
0.52524446065009367
42
-0.35525679385004683
10
-13.000000000000007
20
-1.4327163788251163
10
-13.000000000000004
20
-152.56728362117488
42
-0.35525679385004766
10
-14.592091491775996
20
-154.5252444606501
0
CIRCLE
5
188
100
AcDbEntity
8
0
100
AcDbCircle
10
-35.499999999999972
20
-14.499999999999966
30
0
40
1.6000000000000003
210
0
220
-0
230
1
0
CIRCLE
5
189
100
AcDbEntity
8
0
100
AcDbCircle
10
-175.49999999999997
20
-14.499999999999966
30
0
40
1.6000000000000003
210
0
220
-0
230
1
0
CIRCLE
5
190
100
AcDbEntity
8
0
100
AcDbCircle
10
-300.5
20
-14.499999999999966
30
0
40
1.6000000000000003
210
0
220
-0
230
1
0
CIRCLE
5
191
100
AcDbEntity
8
0
100
AcDbCircle
10
-160.49999999999997
20
-14.499999999999966
30
0
40
1.6000000000000003
210
0
220
-0
230
1
0
CIRCLE
5
192
100
AcDbEntity
8
0
100
AcDbCircle
10
-20
20
-4.9999999999999218
30
0
40
1.6000000000000003
210
0
220
-0
230
1
0
ENDSEC
0
SECTION
2
OBJECTS
0
DICTIONARY
5
C
100
AcDbDictionary
3
ACAD_GROUP
350
D
3
ACAD_MLINESTYLE
350
17
0
DICTIONARY
5
D
100
AcDbDictionary
0
DICTIONARY
5
1A
330
C
100
AcDbDictionary
0
DICTIONARY
5
17
100
AcDbDictionary
0
ENDSEC
0
EOF
